<mxfile host="app.diagrams.net" modified="2024-03-30T06:02:48.766Z" agent="Mozilla/5.0 (Macintosh; Intel Mac OS X 10_15_7) AppleWebKit/537.36 (KHTML, like Gecko) Chrome/123.0.0.0 Safari/537.36" etag="2c4vBbdhLFr1btLIUcOx" version="24.0.0" type="device">
  <diagram id="f106602c-feb2-e66a-4537-3a34d633f6aa" name="Page-1">
    <mxGraphModel dx="954" dy="606" grid="1" gridSize="10" guides="1" tooltips="1" connect="1" arrows="1" fold="1" page="1" pageScale="1" pageWidth="1169" pageHeight="827" background="none" math="0" shadow="0">
      <root>
        <mxCell id="0" />
        <mxCell id="1" parent="0" />
        <mxCell id="GM67y3HvhtU7mAmXUaif-747" value="Marketing List" style="rounded=1;absoluteArcSize=1;arcSize=2;html=1;strokeColor=#d79b00;shadow=0;dashed=0;strokeColor=none;fontSize=12;align=left;verticalAlign=top;spacing=10;spacingTop=-4;fillColor=#ffe6cc;" parent="1" vertex="1">
          <mxGeometry x="690" y="770" width="200" height="280" as="geometry" />
        </mxCell>
        <mxCell id="aSdlkQI3lO5F01rMtPc5-721" value="Pandas" style="rounded=1;absoluteArcSize=1;arcSize=2;html=1;strokeColor=#b85450;shadow=0;dashed=0;strokeColor=none;fontSize=12;align=left;verticalAlign=top;spacing=10;spacingTop=-4;fillColor=#f8cecc;" parent="1" vertex="1">
          <mxGeometry x="707.5" y="830" width="165" height="140" as="geometry" />
        </mxCell>
        <mxCell id="GM67y3HvhtU7mAmXUaif-729" value="Customer Lists Logic" style="rounded=1;absoluteArcSize=1;arcSize=2;html=1;strokeColor=#6c8ebf;shadow=0;dashed=0;strokeColor=none;fontSize=12;align=left;verticalAlign=top;spacing=10;spacingTop=-4;fillColor=#dae8fc;" parent="1" vertex="1">
          <mxGeometry x="120" y="770" width="200" height="290" as="geometry" />
        </mxCell>
        <mxCell id="GM67y3HvhtU7mAmXUaif-725" value="&lt;div style=&quot;&quot;&gt;&lt;span style=&quot;background-color: initial;&quot;&gt;Data source layer&lt;/span&gt;&lt;/div&gt;" style="fillColor=#f8cecc;strokeColor=#b85450;shadow=1;fontSize=14;align=left;spacingLeft=50;html=1;" parent="1" vertex="1">
          <mxGeometry x="120" y="730" width="200" height="40" as="geometry" />
        </mxCell>
        <mxCell id="GM67y3HvhtU7mAmXUaif-728" style="edgeStyle=orthogonalEdgeStyle;rounded=0;orthogonalLoop=1;jettySize=auto;html=1;exitX=0.5;exitY=1;exitDx=0;exitDy=0;exitPerimeter=0;" parent="1" edge="1">
          <mxGeometry relative="1" as="geometry">
            <mxPoint x="361.5" y="112" as="sourcePoint" />
            <mxPoint x="361.5" y="112" as="targetPoint" />
          </mxGeometry>
        </mxCell>
        <mxCell id="GM67y3HvhtU7mAmXUaif-720" value="API&amp;nbsp;&lt;span style=&quot;font-family: Menlo, Monaco, &amp;quot;Courier New&amp;quot;, monospace; white-space-collapse: preserve;&quot;&gt;smart-lab.ru/news/&lt;/span&gt;" style="image;aspect=fixed;html=1;points=[];align=center;fontSize=12;image=img/lib/azure2/devops/API_Connections.svg;" parent="1" vertex="1">
          <mxGeometry x="180" y="895" width="60.02" height="40" as="geometry" />
        </mxCell>
        <mxCell id="aSdlkQI3lO5F01rMtPc5-720" style="edgeStyle=orthogonalEdgeStyle;rounded=0;orthogonalLoop=1;jettySize=auto;html=1;entryX=0;entryY=0.5;entryDx=0;entryDy=0;" parent="1" source="GM67y3HvhtU7mAmXUaif-731" target="GM67y3HvhtU7mAmXUaif-752" edge="1">
          <mxGeometry relative="1" as="geometry" />
        </mxCell>
        <mxCell id="GM67y3HvhtU7mAmXUaif-731" value="Campain Manager" style="rounded=1;absoluteArcSize=1;arcSize=2;html=1;strokeColor=#82b366;shadow=0;dashed=0;strokeColor=none;fontSize=12;align=left;verticalAlign=top;spacing=10;spacingTop=-4;fillColor=#d5e8d4;" parent="1" vertex="1">
          <mxGeometry x="420" y="770" width="200" height="290" as="geometry" />
        </mxCell>
        <mxCell id="GM67y3HvhtU7mAmXUaif-732" value="&lt;div style=&quot;&quot;&gt;&lt;span style=&quot;background-color: initial;&quot;&gt;ETL layer&lt;/span&gt;&lt;/div&gt;" style="fillColor=#f8cecc;strokeColor=#b85450;shadow=1;fontSize=14;align=left;spacingLeft=50;html=1;" parent="1" vertex="1">
          <mxGeometry x="420" y="730" width="200" height="40" as="geometry" />
        </mxCell>
        <mxCell id="GM67y3HvhtU7mAmXUaif-733" value="Marketing" style="rounded=1;absoluteArcSize=1;arcSize=2;html=1;strokeColor=#d79b00;shadow=0;dashed=0;strokeColor=none;fontSize=12;align=left;verticalAlign=top;spacing=10;spacingTop=-4;fillColor=#ffe6cc;" parent="1" vertex="1">
          <mxGeometry x="437.5" y="810" width="165" height="230" as="geometry" />
        </mxCell>
        <mxCell id="GM67y3HvhtU7mAmXUaif-734" value="" style="shape=image;html=1;verticalAlign=top;verticalLabelPosition=bottom;labelBackgroundColor=#ffffff;imageAspect=0;aspect=fixed;image=https://cdn0.iconfinder.com/data/icons/long-shadow-web-icons/512/python-128.png" parent="1" vertex="1">
          <mxGeometry x="488" y="956" width="64" height="64" as="geometry" />
        </mxCell>
        <mxCell id="GM67y3HvhtU7mAmXUaif-745" value="Верхнеуровневая архитектура ПР1_2" style="fillColor=#4DA1F5;strokeColor=none;shadow=1;gradientColor=none;fontSize=14;align=center;spacingLeft=50;fontColor=#ffffff;html=1;" parent="1" vertex="1">
          <mxGeometry x="185" y="650" width="660" height="40" as="geometry" />
        </mxCell>
        <mxCell id="GM67y3HvhtU7mAmXUaif-748" value="&lt;div style=&quot;&quot;&gt;&lt;span style=&quot;background-color: initial;&quot;&gt;ETL layer&lt;/span&gt;&lt;/div&gt;" style="fillColor=#f8cecc;strokeColor=#b85450;shadow=1;fontSize=14;align=left;spacingLeft=50;html=1;" parent="1" vertex="1">
          <mxGeometry x="690" y="730" width="200" height="40" as="geometry" />
        </mxCell>
        <object label="p" id="GM67y3HvhtU7mAmXUaif-752">
          <mxCell style="strokeColor=#dddddd;fillColor=#ffffff;shadow=1;strokeWidth=1;rounded=1;absoluteArcSize=1;arcSize=2;fontSize=10;fontColor=#9E9E9E;align=center;html=1;" parent="1" vertex="1">
            <mxGeometry x="760" y="885" width="60" height="60" as="geometry" />
          </mxCell>
        </object>
        <mxCell id="GM67y3HvhtU7mAmXUaif-753" value="" style="dashed=0;connectable=0;html=1;fillColor=#5184F3;strokeColor=none;shape=mxgraph.gcp2.google_analytics;part=1;labelPosition=right;verticalLabelPosition=middle;align=left;verticalAlign=middle;spacingLeft=5;fontColor=#999999;fontSize=12;" parent="GM67y3HvhtU7mAmXUaif-752" vertex="1">
          <mxGeometry width="45" height="45" relative="1" as="geometry">
            <mxPoint x="5" y="7" as="offset" />
          </mxGeometry>
        </mxCell>
        <mxCell id="aSdlkQI3lO5F01rMtPc5-719" style="edgeStyle=orthogonalEdgeStyle;rounded=0;orthogonalLoop=1;jettySize=auto;html=1;entryX=0;entryY=0.5;entryDx=0;entryDy=0;" parent="1" source="GM67y3HvhtU7mAmXUaif-720" target="GM67y3HvhtU7mAmXUaif-731" edge="1">
          <mxGeometry relative="1" as="geometry" />
        </mxCell>
        <mxCell id="vju7a0YQyN5jJ9zP3DRb-4" value="Customer Lists Logic" style="rounded=1;absoluteArcSize=1;arcSize=2;html=1;strokeColor=#6c8ebf;shadow=0;dashed=0;strokeColor=none;fontSize=12;align=left;verticalAlign=top;spacing=10;spacingTop=-4;fillColor=#dae8fc;" parent="1" vertex="1">
          <mxGeometry x="260" y="140" width="200" height="420" as="geometry" />
        </mxCell>
        <mxCell id="vju7a0YQyN5jJ9zP3DRb-5" value="&lt;div style=&quot;&quot;&gt;&lt;span style=&quot;background-color: initial;&quot;&gt;Data source layer&lt;/span&gt;&lt;/div&gt;" style="fillColor=#f8cecc;strokeColor=#b85450;shadow=1;fontSize=14;align=left;spacingLeft=50;html=1;" parent="1" vertex="1">
          <mxGeometry x="255" y="100" width="200" height="40" as="geometry" />
        </mxCell>
        <mxCell id="vju7a0YQyN5jJ9zP3DRb-6" value="API data mos.ru" style="image;aspect=fixed;html=1;points=[];align=center;fontSize=12;image=img/lib/azure2/devops/API_Connections.svg;" parent="1" vertex="1">
          <mxGeometry x="324.49" y="270" width="60.02" height="40" as="geometry" />
        </mxCell>
        <mxCell id="vju7a0YQyN5jJ9zP3DRb-8" value="Campain Manager" style="rounded=1;absoluteArcSize=1;arcSize=2;html=1;strokeColor=#82b366;shadow=0;dashed=0;strokeColor=none;fontSize=12;align=left;verticalAlign=top;spacing=10;spacingTop=-4;fillColor=#d5e8d4;" parent="1" vertex="1">
          <mxGeometry x="560" y="140" width="195" height="420" as="geometry" />
        </mxCell>
        <mxCell id="vju7a0YQyN5jJ9zP3DRb-9" value="&lt;div style=&quot;&quot;&gt;&lt;span style=&quot;background-color: initial;&quot;&gt;ETL layer&lt;/span&gt;&lt;/div&gt;" style="fillColor=#f8cecc;strokeColor=#b85450;shadow=1;fontSize=14;align=left;spacingLeft=50;html=1;" parent="1" vertex="1">
          <mxGeometry x="555" y="100" width="200" height="40" as="geometry" />
        </mxCell>
        <mxCell id="vju7a0YQyN5jJ9zP3DRb-10" value="Marketing" style="rounded=1;absoluteArcSize=1;arcSize=2;html=1;strokeColor=#d79b00;shadow=0;dashed=0;strokeColor=none;fontSize=12;align=left;verticalAlign=top;spacing=10;spacingTop=-4;fillColor=#ffe6cc;" parent="1" vertex="1">
          <mxGeometry x="572.5" y="180" width="165" height="327" as="geometry" />
        </mxCell>
        <mxCell id="vju7a0YQyN5jJ9zP3DRb-11" value="" style="shape=image;html=1;verticalAlign=top;verticalLabelPosition=bottom;labelBackgroundColor=#ffffff;imageAspect=0;aspect=fixed;image=https://cdn0.iconfinder.com/data/icons/long-shadow-web-icons/512/python-128.png" parent="1" vertex="1">
          <mxGeometry x="626" y="400" width="64" height="64" as="geometry" />
        </mxCell>
        <mxCell id="vju7a0YQyN5jJ9zP3DRb-12" value="Верхнеуровневая архитектура ПР1_1" style="fillColor=#4DA1F5;strokeColor=none;shadow=1;gradientColor=none;fontSize=14;align=center;spacingLeft=50;fontColor=#ffffff;html=1;" parent="1" vertex="1">
          <mxGeometry x="160" y="30" width="660" height="40" as="geometry" />
        </mxCell>
        <mxCell id="vju7a0YQyN5jJ9zP3DRb-16" style="edgeStyle=orthogonalEdgeStyle;rounded=0;orthogonalLoop=1;jettySize=auto;html=1;entryX=0;entryY=0.5;entryDx=0;entryDy=0;exitX=1;exitY=0.5;exitDx=0;exitDy=0;" parent="1" source="vju7a0YQyN5jJ9zP3DRb-4" target="vju7a0YQyN5jJ9zP3DRb-8" edge="1">
          <mxGeometry relative="1" as="geometry" />
        </mxCell>
        <mxCell id="vju7a0YQyN5jJ9zP3DRb-18" value="data-60789-2024-01-24.csv" style="sketch=0;pointerEvents=1;shadow=0;dashed=0;html=1;strokeColor=none;fillColor=#505050;labelPosition=center;verticalLabelPosition=bottom;verticalAlign=top;outlineConnect=0;align=center;shape=mxgraph.office.users.csv_file;" parent="1" vertex="1">
          <mxGeometry x="325" y="190" width="59" height="43" as="geometry" />
        </mxCell>
        <mxCell id="vju7a0YQyN5jJ9zP3DRb-19" value=".sqlite" style="outlineConnect=0;dashed=0;verticalLabelPosition=bottom;verticalAlign=top;align=center;html=1;shape=mxgraph.aws3.sql_master;fillColor=#2E73B8;gradientColor=none;" parent="1" vertex="1">
          <mxGeometry x="325" y="354" width="60" height="60" as="geometry" />
        </mxCell>
        <mxCell id="vju7a0YQyN5jJ9zP3DRb-20" value="&lt;font face=&quot;monospace&quot;&gt;&lt;span style=&quot;font-size: 15px; background-color: rgb(255, 255, 255);&quot;&gt;.parquet&lt;/span&gt;&lt;/font&gt;" style="outlineConnect=0;dashed=0;verticalLabelPosition=bottom;verticalAlign=top;align=center;html=1;shape=mxgraph.aws3.archive;fillColor=#E05243;gradientColor=none;" parent="1" vertex="1">
          <mxGeometry x="330" y="447" width="49" height="70" as="geometry" />
        </mxCell>
        <mxCell id="vju7a0YQyN5jJ9zP3DRb-23" value="" style="dashed=0;outlineConnect=0;html=1;align=center;labelPosition=center;verticalLabelPosition=bottom;verticalAlign=top;shape=mxgraph.webicons.json_2;gradientColor=#DFDEDE" parent="1" vertex="1">
          <mxGeometry x="616.9" y="300" width="76.2" height="67" as="geometry" />
        </mxCell>
        <mxCell id="vju7a0YQyN5jJ9zP3DRb-24" value="" style="verticalLabelPosition=bottom;html=1;verticalAlign=top;align=center;strokeColor=none;fillColor=#00BEF2;shape=mxgraph.azure.cloud_service_package_file;" parent="1" vertex="1">
          <mxGeometry x="629.5" y="220" width="51" height="63" as="geometry" />
        </mxCell>
        <mxCell id="vju7a0YQyN5jJ9zP3DRb-26" value="Marketing List" style="rounded=1;absoluteArcSize=1;arcSize=2;html=1;strokeColor=#d79b00;shadow=0;dashed=0;strokeColor=none;fontSize=12;align=left;verticalAlign=top;spacing=10;spacingTop=-4;fillColor=#ffe6cc;" parent="1" vertex="1">
          <mxGeometry x="730" y="1240" width="200" height="330" as="geometry" />
        </mxCell>
        <mxCell id="vju7a0YQyN5jJ9zP3DRb-27" value="Pandas" style="rounded=1;absoluteArcSize=1;arcSize=2;html=1;strokeColor=#b85450;shadow=0;dashed=0;strokeColor=none;fontSize=12;align=left;verticalAlign=top;spacing=10;spacingTop=-4;fillColor=#f8cecc;" parent="1" vertex="1">
          <mxGeometry x="747.5" y="1320" width="165" height="170" as="geometry" />
        </mxCell>
        <mxCell id="vju7a0YQyN5jJ9zP3DRb-28" value="Customer Lists Logic" style="rounded=1;absoluteArcSize=1;arcSize=2;html=1;strokeColor=#6c8ebf;shadow=0;dashed=0;strokeColor=none;fontSize=12;align=left;verticalAlign=top;spacing=10;spacingTop=-4;fillColor=#dae8fc;" parent="1" vertex="1">
          <mxGeometry x="160" y="1240" width="200" height="320" as="geometry" />
        </mxCell>
        <mxCell id="vju7a0YQyN5jJ9zP3DRb-29" value="&lt;div style=&quot;&quot;&gt;&lt;span style=&quot;background-color: initial;&quot;&gt;Data source layer&lt;/span&gt;&lt;/div&gt;" style="fillColor=#f8cecc;strokeColor=#b85450;shadow=1;fontSize=14;align=left;spacingLeft=50;html=1;" parent="1" vertex="1">
          <mxGeometry x="160" y="1200" width="200" height="40" as="geometry" />
        </mxCell>
        <mxCell id="vju7a0YQyN5jJ9zP3DRb-30" value="API data mos.ru" style="image;aspect=fixed;html=1;points=[];align=center;fontSize=12;image=img/lib/azure2/devops/API_Connections.svg;" parent="1" vertex="1">
          <mxGeometry x="220" y="1380" width="60.02" height="40" as="geometry" />
        </mxCell>
        <mxCell id="vju7a0YQyN5jJ9zP3DRb-31" style="edgeStyle=orthogonalEdgeStyle;rounded=0;orthogonalLoop=1;jettySize=auto;html=1;entryX=0;entryY=0.5;entryDx=0;entryDy=0;" parent="1" source="vju7a0YQyN5jJ9zP3DRb-32" target="vju7a0YQyN5jJ9zP3DRb-38" edge="1">
          <mxGeometry relative="1" as="geometry" />
        </mxCell>
        <mxCell id="vju7a0YQyN5jJ9zP3DRb-32" value="Campain Manager" style="rounded=1;absoluteArcSize=1;arcSize=2;html=1;strokeColor=#82b366;shadow=0;dashed=0;strokeColor=none;fontSize=12;align=left;verticalAlign=top;spacing=10;spacingTop=-4;fillColor=#d5e8d4;" parent="1" vertex="1">
          <mxGeometry x="460" y="1240" width="200" height="320" as="geometry" />
        </mxCell>
        <mxCell id="vju7a0YQyN5jJ9zP3DRb-33" value="&lt;div style=&quot;&quot;&gt;&lt;span style=&quot;background-color: initial;&quot;&gt;ETL layer&lt;/span&gt;&lt;/div&gt;" style="fillColor=#f8cecc;strokeColor=#b85450;shadow=1;fontSize=14;align=left;spacingLeft=50;html=1;" parent="1" vertex="1">
          <mxGeometry x="460" y="1200" width="200" height="40" as="geometry" />
        </mxCell>
        <mxCell id="vju7a0YQyN5jJ9zP3DRb-34" value="Marketing" style="rounded=1;absoluteArcSize=1;arcSize=2;html=1;strokeColor=#d79b00;shadow=0;dashed=0;strokeColor=none;fontSize=12;align=left;verticalAlign=top;spacing=10;spacingTop=-4;fillColor=#ffe6cc;" parent="1" vertex="1">
          <mxGeometry x="477.5" y="1280" width="165" height="270" as="geometry" />
        </mxCell>
        <mxCell id="vju7a0YQyN5jJ9zP3DRb-35" value="" style="shape=image;html=1;verticalAlign=top;verticalLabelPosition=bottom;labelBackgroundColor=#ffffff;imageAspect=0;aspect=fixed;image=https://cdn0.iconfinder.com/data/icons/long-shadow-web-icons/512/python-128.png" parent="1" vertex="1">
          <mxGeometry x="528" y="1450" width="64" height="64" as="geometry" />
        </mxCell>
        <mxCell id="vju7a0YQyN5jJ9zP3DRb-36" value="Верхнеуровневая архитектура ПР1_3" style="fillColor=#4DA1F5;strokeColor=none;shadow=1;gradientColor=none;fontSize=14;align=center;spacingLeft=50;fontColor=#ffffff;html=1;" parent="1" vertex="1">
          <mxGeometry x="225" y="1140" width="660" height="40" as="geometry" />
        </mxCell>
        <mxCell id="vju7a0YQyN5jJ9zP3DRb-37" value="&lt;div style=&quot;&quot;&gt;&lt;span style=&quot;background-color: initial;&quot;&gt;ETL layer&lt;/span&gt;&lt;/div&gt;" style="fillColor=#f8cecc;strokeColor=#b85450;shadow=1;fontSize=14;align=left;spacingLeft=50;html=1;" parent="1" vertex="1">
          <mxGeometry x="730" y="1200" width="200" height="40" as="geometry" />
        </mxCell>
        <object label="p" id="vju7a0YQyN5jJ9zP3DRb-38">
          <mxCell style="strokeColor=#dddddd;fillColor=#ffffff;shadow=1;strokeWidth=1;rounded=1;absoluteArcSize=1;arcSize=2;fontSize=10;fontColor=#9E9E9E;align=center;html=1;" parent="1" vertex="1">
            <mxGeometry x="800" y="1370" width="60" height="60" as="geometry" />
          </mxCell>
        </object>
        <mxCell id="vju7a0YQyN5jJ9zP3DRb-39" value="" style="dashed=0;connectable=0;html=1;fillColor=#5184F3;strokeColor=none;shape=mxgraph.gcp2.google_analytics;part=1;labelPosition=right;verticalLabelPosition=middle;align=left;verticalAlign=middle;spacingLeft=5;fontColor=#999999;fontSize=12;" parent="vju7a0YQyN5jJ9zP3DRb-38" vertex="1">
          <mxGeometry width="45" height="45" relative="1" as="geometry">
            <mxPoint x="5" y="7" as="offset" />
          </mxGeometry>
        </mxCell>
        <mxCell id="vju7a0YQyN5jJ9zP3DRb-40" style="edgeStyle=orthogonalEdgeStyle;rounded=0;orthogonalLoop=1;jettySize=auto;html=1;entryX=0;entryY=0.5;entryDx=0;entryDy=0;" parent="1" source="vju7a0YQyN5jJ9zP3DRb-30" target="vju7a0YQyN5jJ9zP3DRb-32" edge="1">
          <mxGeometry relative="1" as="geometry" />
        </mxCell>
        <mxCell id="vju7a0YQyN5jJ9zP3DRb-41" value="" style="dashed=0;outlineConnect=0;html=1;align=center;labelPosition=center;verticalLabelPosition=bottom;verticalAlign=top;shape=mxgraph.weblogos.json" parent="1" vertex="1">
          <mxGeometry x="525" y="1340" width="60" height="55" as="geometry" />
        </mxCell>
        <mxCell id="vju7a0YQyN5jJ9zP3DRb-44" value="Beautiful Soup" style="verticalLabelPosition=bottom;html=1;verticalAlign=top;align=center;strokeColor=none;fillColor=#00BEF2;shape=mxgraph.azure.cloud_service_package_file;" parent="1" vertex="1">
          <mxGeometry x="489.5" y="860" width="51" height="63" as="geometry" />
        </mxCell>
        <mxCell id="ca0LFIlp1rfItCivP75Q-1" style="edgeStyle=orthogonalEdgeStyle;rounded=0;orthogonalLoop=1;jettySize=auto;html=1;exitX=0.5;exitY=1;exitDx=0;exitDy=0;" edge="1" parent="1" source="vju7a0YQyN5jJ9zP3DRb-4" target="vju7a0YQyN5jJ9zP3DRb-4">
          <mxGeometry relative="1" as="geometry" />
        </mxCell>
      </root>
    </mxGraphModel>
  </diagram>
</mxfile>
